<?xml version="1.0" encoding="UTF-8"?>
<svg width="1200pt" height="1200pt" version="1.1" viewBox="0 0 1200 1200" xmlns="http://www.w3.org/2000/svg">
 <g>
  <path d="m582.09 298.4s427.48 220.55 223.68 533.21l-316.85-277.77 96.309-107.48-199.61-20.934-171.68 198.21 124.24 108.88 83.746-90.734 300.09 280.56s-133.99 127.03-302.89-57.227l-51.652 2.7852-53.039 54.785-28.281-28.785s-8.375-12.039-27.559 6.9727c-13.414 13.281 0 24.078 0 24.078l20.934 23.559s-63.852 28.785-132.43 112.54c0 0-26.16 28.785 12.574 71.188 34.309 37.574 66.465 25.133 78.52 14.148 12.027-11 78.508-76.945 108.87-126.15 0 0 5.7617-13.078 14.133-5.2383 8.3594 7.8516 16.746 17.785 16.746 17.785s9.4258 13.078 26.172-3.6523c16.746-16.746 2.0938-27.746 0-29.84s-27.746-29.828-27.746-29.828-9.4258-9.4258 4.7188-20.945c0 0 115.51 130.16 243.21 130.16 127.72 0 202.4-67 202.4-67l143.07 127.03s25.133 34.188 71.188-11.879c46.066-46.055-2.7852-73.281-2.7852-73.281l-129.83-124.92c0.027344 0.003906 300.84-450.16-326.24-630.22z"/>
  <path d="m584.38 22.148 27.199 82.453 86.84 0.39844-70.016 51.359 26.441 82.707-70.465-50.719-70.496 50.719 26.453-82.707-70.012-51.359 86.84-0.39844z"/>
 </g>
</svg>
