<?xml version="1.0" encoding="UTF-8"?>
<svg width="700pt" height="700pt" version="1.1" viewBox="0 0 700 700" xmlns="http://www.w3.org/2000/svg" xmlns:xlink="http://www.w3.org/1999/xlink">
 <defs>
  <symbol id="t" overflow="visible">
   <path d="m20.844-1.25c-1.0742 0.5625-2.1953 0.98438-3.3594 1.2656-1.168 0.28125-2.3828 0.42188-3.6406 0.42188-3.7812 0-6.7773-1.0508-8.9844-3.1562-2.2109-2.1133-3.3125-4.9766-3.3125-8.5938 0-3.625 1.1016-6.4922 3.3125-8.6094 2.207-2.1133 5.2031-3.1719 8.9844-3.1719 1.2578 0 2.4727 0.14844 3.6406 0.4375 1.1641 0.28125 2.2852 0.69922 3.3594 1.25v4.7031c-1.0859-0.73828-2.1523-1.2812-3.2031-1.625-1.0547-0.34375-2.1641-0.51562-3.3281-0.51562-2.0859 0-3.7266 0.66797-4.9219 2-1.1992 1.3359-1.7969 3.1797-1.7969 5.5312 0 2.3359 0.59766 4.1719 1.7969 5.5156 1.1953 1.3359 2.8359 2 4.9219 2 1.1641 0 2.2734-0.17188 3.3281-0.51562 1.0508-0.34375 2.1172-0.88281 3.2031-1.625z"/>
  </symbol>
  <symbol id="b" overflow="visible">
   <path d="m15.25-12.375c-0.48047-0.22656-0.95312-0.39453-1.4219-0.5-0.46875-0.10156-0.94531-0.15625-1.4219-0.15625-1.3984 0-2.4766 0.44922-3.2344 1.3438-0.75 0.89844-1.125 2.1797-1.125 3.8438v7.8438h-5.4375v-17.016h5.4375v2.7969c0.69531-1.1133 1.5-1.9258 2.4062-2.4375 0.90625-0.50781 1.9922-0.76562 3.2656-0.76562 0.17578 0 0.36719 0.011719 0.57812 0.03125 0.21875 0.011719 0.53125 0.042969 0.9375 0.09375z"/>
  </symbol>
  <symbol id="a" overflow="visible">
   <path d="m19.594-8.5469v1.5469h-12.719c0.13281 1.2734 0.59766 2.2305 1.3906 2.875 0.78906 0.63672 1.8945 0.95312 3.3125 0.95312 1.1445 0 2.3164-0.16406 3.5156-0.5 1.1953-0.34375 2.4297-0.85938 3.7031-1.5469v4.1875c-1.293 0.49219-2.5859 0.85547-3.875 1.0938-1.2812 0.25-2.5625 0.375-3.8438 0.375-3.0859 0-5.4805-0.78125-7.1875-2.3438-1.6992-1.5625-2.5469-3.7539-2.5469-6.5781 0-2.7812 0.83203-4.9609 2.5-6.5469 1.6758-1.5938 3.9844-2.3906 6.9219-2.3906 2.6758 0 4.8164 0.80859 6.4219 2.4219 1.6016 1.6055 2.4062 3.7578 2.4062 6.4531zm-5.5938-1.8125c0-1.0312-0.30469-1.8633-0.90625-2.5-0.59375-0.63281-1.3828-0.95312-2.3594-0.95312-1.0547 0-1.9062 0.29688-2.5625 0.89062s-1.0703 1.4492-1.2344 2.5625z"/>
  </symbol>
  <symbol id="f" overflow="visible">
   <path d="m10.234-7.6562c-1.1367 0-1.9922 0.19531-2.5625 0.57812-0.5625 0.38672-0.84375 0.95312-0.84375 1.7031 0 0.6875 0.22656 1.2305 0.6875 1.625 0.45703 0.38672 1.0977 0.57812 1.9219 0.57812 1.0195 0 1.8789-0.36328 2.5781-1.0938 0.69531-0.73828 1.0469-1.6602 1.0469-2.7656v-0.625zm8.3125-2.0469v9.7031h-5.4844v-2.5156c-0.73047 1.0312-1.5547 1.7812-2.4688 2.25-0.90625 0.46875-2.0117 0.70312-3.3125 0.70312-1.7617 0-3.1953-0.50781-4.2969-1.5312-1.0938-1.0312-1.6406-2.3672-1.6406-4.0156 0-1.9883 0.67969-3.4453 2.0469-4.375 1.375-0.9375 3.5312-1.4062 6.4688-1.4062h3.2031v-0.42188c0-0.86328-0.33984-1.4922-1.0156-1.8906-0.67969-0.40625-1.7344-0.60938-3.1719-0.60938-1.168 0-2.2578 0.12109-3.2656 0.35938-1 0.23047-1.9297 0.57812-2.7812 1.0469v-4.1562c1.1641-0.28125 2.332-0.49219 3.5-0.64062 1.1758-0.14453 2.3516-0.21875 3.5312-0.21875 3.0703 0 5.2852 0.60547 6.6406 1.8125 1.3633 1.2109 2.0469 3.1797 2.0469 5.9062z"/>
  </symbol>
  <symbol id="d" overflow="visible">
   <path d="m8.5469-21.844v4.8281h5.6094v3.8906h-5.6094v7.2188c0 0.79297 0.15625 1.3281 0.46875 1.6094 0.32031 0.27344 0.94531 0.40625 1.875 0.40625h2.7969v3.8906h-4.6719c-2.1484 0-3.668-0.44531-4.5625-1.3438-0.89844-0.89453-1.3438-2.4141-1.3438-4.5625v-7.2188h-2.7031v-3.8906h2.7031v-4.8281z"/>
  </symbol>
  <symbol id="l" overflow="visible">
   <path d="m14.188-14.516v-9.125h5.4688v23.641h-5.4688v-2.4531c-0.75 1-1.5781 1.7344-2.4844 2.2031-0.89844 0.45703-1.9375 0.6875-3.125 0.6875-2.0938 0-3.8203-0.83203-5.1719-2.5-1.3438-1.6641-2.0156-3.8047-2.0156-6.4219 0-2.625 0.67188-4.7695 2.0156-6.4375 1.3516-1.6641 3.0781-2.5 5.1719-2.5 1.1758 0 2.2188 0.23438 3.125 0.70312s1.7344 1.2031 2.4844 2.2031zm-3.5781 11c1.1562 0 2.0391-0.42188 2.6562-1.2656 0.61328-0.85156 0.92188-2.0859 0.92188-3.7031 0-1.625-0.30859-2.8594-0.92188-3.7031-0.61719-0.85156-1.5-1.2812-2.6562-1.2812s-2.043 0.42969-2.6562 1.2812c-0.61719 0.84375-0.92188 2.0781-0.92188 3.7031 0 1.6172 0.30469 2.8516 0.92188 3.7031 0.61328 0.84375 1.5 1.2656 2.6562 1.2656z"/>
  </symbol>
  <symbol id="k" overflow="visible">
   <path d="m11.672-3.5156c1.1562 0 2.0391-0.42188 2.6562-1.2656 0.61328-0.85156 0.92188-2.0859 0.92188-3.7031 0-1.625-0.30859-2.8594-0.92188-3.7031-0.61719-0.85156-1.5-1.2812-2.6562-1.2812-1.168 0-2.0625 0.42969-2.6875 1.2812-0.625 0.85547-0.9375 2.0898-0.9375 3.7031 0 1.6055 0.3125 2.8359 0.9375 3.6875 0.625 0.85547 1.5195 1.2812 2.6875 1.2812zm-3.625-11c0.75-1 1.5781-1.7344 2.4844-2.2031 0.91406-0.46875 1.9688-0.70312 3.1562-0.70312 2.0938 0 3.8125 0.83594 5.1562 2.5 1.3516 1.668 2.0312 3.8125 2.0312 6.4375 0 2.6172-0.67969 4.7578-2.0312 6.4219-1.3438 1.668-3.0625 2.5-5.1562 2.5-1.1875 0-2.2422-0.23438-3.1562-0.70312-0.90625-0.46875-1.7344-1.1953-2.4844-2.1875v2.4531h-5.4375v-23.641h5.4375z"/>
  </symbol>
  <symbol id="e" overflow="visible">
   <path d="m0.375-17.016h5.4375l4.5781 11.547 3.8906-11.547h5.4375l-7.1562 18.625c-0.71875 1.8945-1.5586 3.2188-2.5156 3.9688-0.96094 0.75781-2.2188 1.1406-3.7812 1.1406h-3.1562v-3.5781h1.7031c0.92578 0 1.5977-0.14844 2.0156-0.4375 0.41406-0.29297 0.74219-0.82031 0.98438-1.5781l0.14062-0.46875z"/>
  </symbol>
  <symbol id="j" overflow="visible">
   <path d="m0.46875-17.016h5.4375l4.2344 11.766 4.2344-11.766h5.4531l-6.7031 17.016h-5.9688z"/>
  </symbol>
  <symbol id="i" overflow="visible">
   <path d="m16.359-16.484v4.4375c-0.74219-0.50781-1.4844-0.88281-2.2344-1.125-0.74219-0.23828-1.5117-0.35938-2.3125-0.35938-1.5117 0-2.6953 0.44531-3.5469 1.3281-0.84375 0.88672-1.2656 2.125-1.2656 3.7188 0 1.5859 0.42188 2.8203 1.2656 3.7031 0.85156 0.88672 2.0352 1.3281 3.5469 1.3281 0.85156 0 1.6602-0.125 2.4219-0.375 0.76953-0.25 1.4766-0.625 2.125-1.125v4.4531c-0.85547 0.3125-1.7188 0.54688-2.5938 0.70312s-1.75 0.23438-2.625 0.23438c-3.0742 0-5.4766-0.78516-7.2031-2.3594-1.7305-1.5703-2.5938-3.7578-2.5938-6.5625 0-2.8125 0.86328-5.0039 2.5938-6.5781 1.7266-1.5703 4.1289-2.3594 7.2031-2.3594 0.88281 0 1.7578 0.078125 2.625 0.23438 0.86328 0.15625 1.7266 0.39062 2.5938 0.70312z"/>
  </symbol>
  <symbol id="c" overflow="visible">
   <path d="m10.703-13.531c-1.1992 0-2.1172 0.43359-2.75 1.2969-0.63672 0.86719-0.95312 2.1172-0.95312 3.75 0 1.625 0.31641 2.8711 0.95312 3.7344 0.63281 0.86719 1.5508 1.2969 2.75 1.2969 1.1875 0 2.0938-0.42969 2.7188-1.2969 0.63281-0.86328 0.95312-2.1094 0.95312-3.7344 0-1.6328-0.32031-2.8828-0.95312-3.75-0.625-0.86328-1.5312-1.2969-2.7188-1.2969zm0-3.8906c2.9258 0 5.2109 0.79297 6.8594 2.375 1.6445 1.5742 2.4688 3.7617 2.4688 6.5625 0 2.793-0.82422 4.9805-2.4688 6.5625-1.6484 1.5742-3.9336 2.3594-6.8594 2.3594-2.9375 0-5.2344-0.78516-6.8906-2.3594-1.6484-1.582-2.4688-3.7695-2.4688-6.5625 0-2.8008 0.82031-4.9883 2.4688-6.5625 1.6562-1.582 3.9531-2.375 6.8906-2.375z"/>
  </symbol>
  <symbol id="h" overflow="visible">
   <path d="m15.906-16.484v4.1406c-1.168-0.48828-2.293-0.85156-3.375-1.0938-1.0859-0.25-2.1055-0.375-3.0625-0.375-1.043 0-1.8125 0.13281-2.3125 0.39062-0.5 0.26172-0.75 0.65625-0.75 1.1875 0 0.4375 0.1875 0.77734 0.5625 1.0156 0.38281 0.23047 1.0664 0.40234 2.0469 0.51562l0.96875 0.125c2.7812 0.35547 4.6484 0.9375 5.6094 1.75 0.96875 0.8125 1.4531 2.0859 1.4531 3.8125 0 1.8125-0.67188 3.1797-2.0156 4.0938-1.3359 0.90625-3.3281 1.3594-5.9844 1.3594-1.1172 0-2.2773-0.089844-3.4844-0.26562-1.1992-0.17578-2.4297-0.44141-3.6875-0.79688v-4.125c1.082 0.52344 2.1914 0.91797 3.3281 1.1875 1.1328 0.26172 2.2891 0.39062 3.4688 0.39062 1.0625 0 1.8594-0.14453 2.3906-0.4375 0.53906-0.30078 0.8125-0.73828 0.8125-1.3125 0-0.48828-0.1875-0.84766-0.5625-1.0781-0.36719-0.23828-1.1016-0.42578-2.2031-0.5625l-0.95312-0.125c-2.418-0.30078-4.1172-0.85938-5.0938-1.6719-0.96875-0.82031-1.4531-2.0703-1.4531-3.75 0-1.8008 0.61328-3.1328 1.8438-4 1.2383-0.875 3.1328-1.3125 5.6875-1.3125 1 0 2.0508 0.078125 3.1562 0.23438 1.1016 0.14844 2.3047 0.38281 3.6094 0.70312z"/>
  </symbol>
  <symbol id="g" overflow="visible">
   <path d="m19.719-10.359v10.359h-5.4688v-7.9219c0-1.4688-0.039062-2.4766-0.10938-3.0312-0.0625-0.5625-0.17188-0.97656-0.32812-1.25-0.21875-0.35156-0.51172-0.62891-0.875-0.82812-0.36719-0.19531-0.77734-0.29688-1.2344-0.29688-1.1367 0-2.0312 0.44531-2.6875 1.3281-0.64844 0.875-0.96875 2.0859-0.96875 3.625v8.375h-5.4375v-17.016h5.4375v2.5c0.82031-1 1.6914-1.7344 2.6094-2.2031 0.92578-0.46875 1.9453-0.70312 3.0625-0.70312 1.957 0 3.4453 0.60547 4.4688 1.8125 1.0195 1.1992 1.5312 2.9492 1.5312 5.25z"/>
  </symbol>
  <symbol id="s" overflow="visible">
   <path d="m13.812-23.641v3.5781h-3.0156c-0.77344 0-1.3086 0.14062-1.6094 0.42188-0.30469 0.27344-0.45312 0.75-0.45312 1.4375v1.1875h4.6406v3.8906h-4.6406v13.125h-5.4375v-13.125h-2.7031v-3.8906h2.7031v-1.1875c0-1.8516 0.51562-3.2227 1.5469-4.1094 1.0312-0.88281 2.6289-1.3281 4.7969-1.3281z"/>
  </symbol>
  <symbol id="r" overflow="visible">
   <path d="m18.375-14.188c0.6875-1.0508 1.5039-1.8516 2.4531-2.4062 0.94531-0.55078 1.9883-0.82812 3.125-0.82812 1.957 0 3.4453 0.60547 4.4688 1.8125 1.0195 1.1992 1.5312 2.9492 1.5312 5.25v10.359h-5.4688v-8.875c0.007813-0.125 0.015625-0.25781 0.015625-0.40625 0.007812-0.14453 0.015625-0.34766 0.015625-0.60938 0-1.207-0.17969-2.082-0.53125-2.625-0.35547-0.53906-0.92969-0.8125-1.7188-0.8125-1.0312 0-1.8281 0.42969-2.3906 1.2812-0.5625 0.85547-0.85547 2.0859-0.875 3.6875v8.3594h-5.4688v-8.875c0-1.8828-0.16406-3.0977-0.48438-3.6406-0.32422-0.53906-0.90234-0.8125-1.7344-0.8125-1.043 0-1.8516 0.43359-2.4219 1.2969-0.5625 0.85547-0.84375 2.0742-0.84375 3.6562v8.375h-5.4688v-17.016h5.4688v2.5c0.66406-0.96875 1.4297-1.6914 2.2969-2.1719 0.875-0.48828 1.832-0.73438 2.875-0.73438 1.1758 0 2.2109 0.28906 3.1094 0.85938 0.90625 0.5625 1.5859 1.3555 2.0469 2.375z"/>
  </symbol>
  <symbol id="q" overflow="visible">
   <path d="m19.719-10.359v10.359h-5.4688v-7.9062c0-1.4766-0.039062-2.4922-0.10938-3.0469-0.0625-0.5625-0.17188-0.97656-0.32812-1.25-0.21875-0.35156-0.51172-0.62891-0.875-0.82812-0.36719-0.19531-0.77734-0.29688-1.2344-0.29688-1.1367 0-2.0312 0.44531-2.6875 1.3281-0.64844 0.875-0.96875 2.0859-0.96875 3.625v8.375h-5.4375v-23.641h5.4375v9.125c0.82031-1 1.6914-1.7344 2.6094-2.2031 0.92578-0.46875 1.9453-0.70312 3.0625-0.70312 1.957 0 3.4453 0.60547 4.4688 1.8125 1.0195 1.1992 1.5312 2.9492 1.5312 5.25z"/>
  </symbol>
  <symbol id="p" overflow="visible">
   <path d="m2.8594-22.672h6.5312l8.25 15.547v-15.547h5.5469v22.672h-6.5469l-8.2344-15.562v15.562h-5.5469z"/>
  </symbol>
  <symbol id="o" overflow="visible">
   <path d="m2.4375-6.625v-10.391h5.4688v1.7031c0 0.92969-0.007812 2.0898-0.015625 3.4844-0.011719 1.3867-0.015625 2.3125-0.015625 2.7812 0 1.3672 0.03125 2.3516 0.09375 2.9531 0.070312 0.60547 0.19531 1.043 0.375 1.3125 0.21875 0.35547 0.50391 0.63281 0.85938 0.82812 0.36328 0.1875 0.78125 0.28125 1.25 0.28125 1.1328 0 2.0234-0.42969 2.6719-1.2969 0.64453-0.875 0.96875-2.0859 0.96875-3.6406v-8.4062h5.4375v17.016h-5.4375v-2.4531c-0.82422 0.99219-1.6953 1.7188-2.6094 2.1875-0.91797 0.46875-1.9297 0.70312-3.0312 0.70312-1.9609 0-3.4531-0.59766-4.4844-1.7969-1.0234-1.207-1.5312-2.9609-1.5312-5.2656z"/>
  </symbol>
  <symbol id="n" overflow="visible">
   <path d="m2.8594-22.672h9.7031c2.8828 0 5.0977 0.64062 6.6406 1.9219 1.5508 1.2812 2.3281 3.1055 2.3281 5.4688 0 2.375-0.77734 4.2031-2.3281 5.4844-1.543 1.2812-3.7578 1.9219-6.6406 1.9219h-3.8594v7.875h-5.8438zm5.8438 4.2344v6.3281h3.2344c1.1328 0 2.0078-0.27344 2.625-0.82812 0.625-0.55078 0.9375-1.332 0.9375-2.3438 0-1.0078-0.3125-1.7852-0.9375-2.3281-0.61719-0.55078-1.4922-0.82812-2.625-0.82812z"/>
  </symbol>
  <symbol id="m" overflow="visible">
   <path d="m2.6094-17.016h5.4375v16.719c0 2.2695-0.54688 4.0039-1.6406 5.2031-1.0938 1.207-2.6797 1.8125-4.75 1.8125h-2.6875v-3.5781h0.9375c1.0312 0 1.7383-0.23438 2.125-0.70312 0.38281-0.46094 0.57812-1.3711 0.57812-2.7344zm0-6.625h5.4375v4.4375h-5.4375z"/>
  </symbol>
 </defs>
 <g>
  <path d="m366.74 352.74c-0.12109 0.9375-0.61719 1.7891-1.3711 2.3633l0.62109-4.9766h0.003907c0.58984 0.73438 0.85937 1.6758 0.74609 2.6133z"/>
  <path d="m615.69 240.55c-4.5625-6.9531-10.238-13.113-16.797-18.23 0.93359-10.949 2.3008-61.227-49.777-71.555-1.9297-11.945-12.445-56.809-63.219-55.625v-0.003906c-4.9844-14.84-15-27.473-28.312-35.715-14.809-8.5859-32.914-10.266-53.387-5.1641-16.863-17.234-35.527-25.512-54.879-25.449-20.254 1.2734-39.32 10.008-53.512 24.516-17.703-5.4648-36.859-3.6289-53.199 5.1016-13.285 8.2539-23.277 20.887-28.25 35.715-50.836-1.3086-61.289 43.555-63.281 56-51.957 10.328-50.648 60.543-49.777 71.555v0.003907c-6.582 4.9805-12.301 11.016-16.922 17.855-8.832 14.191-10.047 31.84-3.2383 47.102 3.207 6.6992 7.6133 12.754 13.004 17.859l146.35 129.92v37.023-0.003907c-0.23828 6.0625 1.8555 11.988 5.8477 16.551 5.9844 5.7539 14.125 8.6953 22.402 8.0898h41.191l40.07 35.406 39.945-35.281h41.875c8.2891 0.60156 16.441-2.3633 22.402-8.1523 4.0625-4.4258 6.2852-10.23 6.2227-16.238v-37.332l145.41-128.99c5.4336-5.1094 9.8633-11.184 13.066-17.922 6.7422-15.254 5.5312-32.852-3.2383-47.039zm-24.453-19.102-114.74 141.74c-4.082-5.6367-8.5078-11.02-13.25-16.117-3.2305-3.4688-6.6367-6.7695-10.207-9.8906l94.145-179.08c46.664 9.0234 44.984 53.449 44.051 63.344zm-49.777-68.816-94.203 179.63c-8.5859-6.9102-17.891-12.875-27.75-17.793l66.02-211.55c46.727-1.5586 54.938 40.691 56.184 49.715zm-135.46-91.156c15.699-4.8398 32.676-3.2734 47.227 4.3555 12.023 7.5547 21.012 19.094 25.387 32.605l-66.02 212.67c-10.73-4.7422-21.988-8.1875-33.535-10.266zm-56.809-24.891c17.297 0 33.973 7.5898 49.777 23.52l-27.191 239.93c-5.1641-0.68359-10.391-1.3672-15.555-1.3672-9.3672-0.28906-18.738 0.27344-28 1.6797l-27.254-241.61c4.793-4.793 23.707-22.027 48.535-22.461zm-102.73 28.25c14.559-7.6094 31.535-9.1523 47.227-4.293l27.129 241.11c-11.398 2.3047-22.488 5.9375-33.039 10.828l-66.641-214.92c4.3633-13.527 13.324-25.105 25.324-32.727zm-34.035 36.773h2.1172l66.266 214.17c-9.7031 4.9922-18.824 11.043-27.191 18.043l-95.262-182.18c1.1836-8.9609 9.0859-50.027 54.07-50.027zm-59.609 55.504 95.012 181.69h0.003906c-8.5273 7.7852-16.145 16.512-22.711 26.008l-116.23-144.23c-1.1211-9.832-2.8633-54.32 43.926-63.469zm-53.695 141.55c-4.6289-4.4102-8.4219-9.6172-11.199-15.371-5.7773-13.051-4.6836-28.117 2.9219-40.195 3.9414-5.8906 8.8203-11.105 14.438-15.43l115.48 143.73c-4.6211 8.0508-8.7734 16.359-12.445 24.887zm169.62 189.96c-6.1641 0.52734-12.27-1.5234-16.863-5.6641-2.6758-3.1289-4.0742-7.1484-3.918-11.262v-30.613l53.574 47.539zm179.76-5.5391h-0.003906c-4.5859 4.1523-10.695 6.207-16.859 5.6602h-33.414l54.258-47.848v31.113c0.11719 4.0586-1.3047 8.0156-3.9844 11.074zm9.0859-56.684h-0.003907c-1.3125-4.2344-2.8711-8.3906-4.668-12.445-0.38281-0.91797-1.1211-1.6445-2.0469-2.0078-0.92578-0.36328-1.9609-0.33594-2.8672 0.078125-1.8672 0.84766-2.6992 3.043-1.8672 4.9141 2.168 4.9102 3.9375 9.9883 5.2891 15.184l-64.961 57.059-1.3672 1.1836-35.219 31.109-34.098-29.93-3.1094-2.8633-63.656-56.684c1.5352-6.0664 3.6172-11.98 6.2227-17.672 0.023437-0.20313 0.023437-0.41406 0-0.62109 0.87109-1.8594 0.13281-4.0742-1.6797-5.0391-1.0078-0.46484-2.1641-0.46484-3.1719 0-0.80469 0.37891-1.4609 1.0156-1.8672 1.8047-2.5156 5.168-4.5938 10.539-6.2227 16.055l-28.312-24.891c3.418-8.2305 7.2812-16.27 11.574-24.082 1.2461-2.1797 2.6758-4.418 4.168-6.5938 6.1445-9.1172 13.352-17.473 21.469-24.891 1.8047-1.8047 3.7344-3.4844 5.6641-5.1641h-0.003907c7.9922-6.7656 16.691-12.652 25.949-17.547 2.2383-1.1836 4.4805-2.3008 6.8438-3.3594 10.121-4.7539 20.773-8.2812 31.734-10.516 2.4883-0.49609 4.8516-0.93359 7.3438-1.3086l-0.003906 0.003906c7.3711-1.1484 14.816-1.7305 22.277-1.7422h4.6055c4.9961 0.18359 9.9805 0.61719 14.934 1.3047 2.4883 0.24219 4.9609 0.63672 7.4023 1.1836 11.078 2.0078 21.879 5.3281 32.168 9.8945 2.3008 0.99609 4.6055 2.1172 6.8438 3.1719 9.3945 4.6953 18.242 10.414 26.383 17.051 2.0352 1.5547 3.9883 3.2188 5.8516 4.9766 2.8633 2.6133 5.6641 5.3516 8.3359 8.2148v-0.003907c5.0117 5.3203 9.6289 10.996 13.812 16.988 1.4922 2.1797 2.8633 4.3555 4.2305 6.5938 4.3906 7.793 8.2773 15.855 11.637 24.145zm154.49-141.93c-2.7617 5.7812-6.5586 11.012-11.199 15.43l-107.39 94.766c-3.6289-8.5469-7.7852-16.859-12.445-24.891l113.74-140.87c5.5977 4.3242 10.473 9.5156 14.438 15.371 7.5625 12.094 8.6328 27.152 2.8594 40.195z"/>
  <path d="m441.34 393.62c-3.3203-4.6367-7.0469-8.9688-11.141-12.941-1.3672-1.4297-2.8633-2.8008-4.3555-4.1055-0.73047-0.66016-1.6953-1-2.6758-0.94141-0.98438 0.058594-1.9023 0.50781-2.5508 1.25-0.72656 0.66016-1.1445 1.5977-1.1445 2.582 0 0.98437 0.41797 1.9219 1.1445 2.582 1.9297 1.6797 3.7969 3.5469 5.6016 5.4141 3.2773 3.3867 6.3359 6.9805 9.1445 10.766 0.67187 0.98828 1.793 1.5742 2.9883 1.5547 0.79297 0.03125 1.5703-0.23438 2.1797-0.74609 0.87109-0.57422 1.457-1.4922 1.6133-2.5273 0.15625-1.0312-0.14063-2.082-0.80469-2.8867zm-158.85-18.668h-0.003907c-0.62891-0.75781-1.5391-1.2305-2.5195-1.3125-0.98438-0.082031-1.9609 0.23438-2.707 0.87891-0.60938 0.46094-1.1914 0.96094-1.7422 1.4922-1.9883 1.6328-3.8594 3.3984-5.5977 5.2891-3.1367 3.0859-6.0664 6.3711-8.7734 9.832-1.082 1.1016-1.3594 2.7656-0.6875 4.1562 0.66797 1.3945 2.1367 2.2188 3.6719 2.0664 1.1328 0.027344 2.2031-0.51172 2.8633-1.4297 2.0625-2.6055 4.2656-5.0977 6.5938-7.4688 1.7539-1.8984 3.6016-3.7031 5.5391-5.4141 0.90625-0.91797 1.8633-1.793 2.8633-2.6133 0.92969-0.61719 1.5312-1.625 1.6289-2.7422 0.097656-1.1133-0.32031-2.2109-1.1328-2.9805zm124.45-11.699-0.003906 0.003906c-0.73047-0.49609-1.5039-0.93359-2.3008-1.3086-2.1797-1.1836-4.4805-2.3633-6.7812-3.3594h-0.003906c-3.8789-1.8398-7.8672-3.4414-11.945-4.7891-0.96875-0.40234-2.0586-0.37891-3.0039 0.0625-0.94922 0.44531-1.668 1.2617-1.9844 2.2617-0.31641 0.99609-0.19531 2.082 0.32422 2.9883 0.52344 0.90625 1.4023 1.5508 2.4258 1.7812 4.2422 1.3555 8.3984 2.9766 12.441 4.8516 2.2891 1.0469 4.5156 2.2305 6.6602 3.5469 0.33203 0.09375 0.64844 0.24219 0.93359 0.43359 1.832 0.92578 4.0664 0.30859 5.1641-1.4297 0.55078-0.91406 0.67578-2.0273 0.34375-3.043-0.33594-1.0156-1.0977-1.8359-2.0859-2.2461zm-84.562-8.2109c-0.27344-0.94531-0.91797-1.7422-1.7812-2.207-0.86719-0.46875-1.8828-0.57031-2.8242-0.28125-5.4727 1.6367-10.801 3.7148-15.93 6.2227-1.875 0.8125-3.7031 1.7266-5.4766 2.7383-0.45312 0.22656-0.83984 0.57031-1.1172 0.99609-0.96094 1.1367-1.1094 2.75-0.375 4.043 0.40625 0.92188 1.2461 1.5781 2.2383 1.7422 0.33203 0.042969 0.66797 0.042969 0.99609 0 0.61719-0.003907 1.2188-0.17578 1.7422-0.49609 1.4297-0.74609 2.9258-1.4922 4.293-2.0547 5.043-2.5117 10.289-4.5898 15.68-6.2227 1.8906-0.59766 3.0039-2.5508 2.5547-4.4805zm43.555-4.9141c-0.62109-0.78516-1.5078-1.3164-2.4883-1.4922-7.6797-0.71875-15.406-0.71875-23.086 0-2.0469 0.19531-3.5664 1.9883-3.4219 4.043 0.19531 2.0391 2.0039 3.5391 4.043 3.3594 7.1914-0.58984 14.426-0.46484 21.594 0.375h0.49609c0.84766-0.007812 1.6641-0.31641 2.3008-0.87109 1.5352-1.2461 1.7852-3.4922 0.5625-5.043z"/>
  <use x="70" y="653.332031" xlink:href="#t"/>
  <use x="92.832031" y="653.332031" xlink:href="#b"/>
  <use x="108.175781" y="653.332031" xlink:href="#a"/>
  <use x="129.273437" y="653.332031" xlink:href="#f"/>
  <use x="150.269531" y="653.332031" xlink:href="#d"/>
  <use x="165.140625" y="653.332031" xlink:href="#a"/>
  <use x="186.242188" y="653.332031" xlink:href="#l"/>
  <use x="219.34375" y="653.332031" xlink:href="#k"/>
  <use x="241.613281" y="653.332031" xlink:href="#e"/>
  <use x="272.722656" y="653.332031" xlink:href="#f"/>
  <use x="293.71875" y="653.332031" xlink:href="#j"/>
  <use x="313.996094" y="653.332031" xlink:href="#a"/>
  <use x="335.097656" y="653.332031" xlink:href="#b"/>
  <use x="350.441406" y="653.332031" xlink:href="#e"/>
  <use x="381.550781" y="653.332031" xlink:href="#i"/>
  <use x="399.992188" y="653.332031" xlink:href="#b"/>
  <use x="415.335937" y="653.332031" xlink:href="#c"/>
  <use x="436.710938" y="653.332031" xlink:href="#h"/>
  <use x="455.226562" y="653.332031" xlink:href="#h"/>
  <use x="473.746094" y="653.332031" xlink:href="#c"/>
  <use x="495.121094" y="653.332031" xlink:href="#g"/>
  <use x="70" y="684.445312" xlink:href="#s"/>
  <use x="83.535156" y="684.445312" xlink:href="#b"/>
  <use x="98.878906" y="684.445312" xlink:href="#c"/>
  <use x="120.25" y="684.445312" xlink:href="#r"/>
  <use x="163.5" y="684.445312" xlink:href="#d"/>
  <use x="178.371094" y="684.445312" xlink:href="#q"/>
  <use x="200.519531" y="684.445312" xlink:href="#a"/>
  <use x="232.453125" y="684.445312" xlink:href="#p"/>
  <use x="258.488281" y="684.445312" xlink:href="#c"/>
  <use x="279.863281" y="684.445312" xlink:href="#o"/>
  <use x="302.011719" y="684.445312" xlink:href="#g"/>
  <use x="334.992188" y="684.445312" xlink:href="#n"/>
  <use x="357.792969" y="684.445312" xlink:href="#b"/>
  <use x="373.136719" y="684.445312" xlink:href="#c"/>
  <use x="394.507812" y="684.445312" xlink:href="#m"/>
  <use x="405.171875" y="684.445312" xlink:href="#a"/>
  <use x="426.273437" y="684.445312" xlink:href="#i"/>
  <use x="444.714844" y="684.445312" xlink:href="#d"/>
 </g>
</svg>
